{
	"asset":{
		"generator":"Khronos glTF Blender I/O v3.6.27",
		"version":"2.0"
	},
	"extensionsUsed":[
		"KHR_materials_specular",
		"KHR_materials_ior"
	],
	"scene":0,
	"scenes":[
		{
			"name":"Scene",
			"nodes":[
				0,
				1,
				2
			]
		}
	],
	"nodes":[
		{
			"mesh":0,
			"name":"Trunk-col",
			"rotation":[
				0,
				0,
				-0.3035222887992859,
				0.9528243541717529
			],
			"scale":[
				1.3709975481033325,
				1.3709975481033325,
				1.3709975481033325
			],
			"translation":[
				1.5312191247940063,
				2.1913256645202637,
				-0.15406998991966248
			]
		},
		{
			"mesh":1,
			"name":"Leaves",
			"rotation":[
				0,
				-0.2040759027004242,
				0,
				0.978955090045929
			],
			"scale":[
				1.8431565761566162,
				1.8431562185287476,
				1.8431565761566162
			],
			"translation":[
				2.849416494369507,
				5.66901969909668,
				0.7734789848327637
			]
		},
		{
			"mesh":2,
			"name":"Branch",
			"rotation":[
				-0.11355377733707428,
				0.9435253143310547,
				-0.14635275304317474,
				0.2746751606464386
			],
			"scale":[
				0.6929047703742981,
				0.6929047703742981,
				0.6929047107696533
			],
			"translation":[
				-0.9027121067047119,
				4.249576091766357,
				0.6264564990997314
			]
		}
	],
	"materials":[
		{
			"doubleSided":true,
			"extensions":{
				"KHR_materials_specular":{
					"specularColorFactor":[
						0,
						0,
						0
					]
				},
				"KHR_materials_ior":{
					"ior":1.4500000476837158
				}
			},
			"name":"Wood",
			"pbrMetallicRoughness":{
				"baseColorFactor":[
					0.07655882090330124,
					0.06268339604139328,
					0.07293792814016342,
					1
				],
				"metallicFactor":0
			}
		},
		{
			"doubleSided":true,
			"extensions":{
				"KHR_materials_specular":{
					"specularColorFactor":[
						0,
						0,
						0
					]
				},
				"KHR_materials_ior":{
					"ior":1.4500000476837158
				}
			},
			"name":"Leaves",
			"pbrMetallicRoughness":{
				"baseColorFactor":[
					0.800000011920929,
					0.800000011920929,
					0.800000011920929,
					1
				],
				"metallicFactor":0
			}
		}
	],
	"meshes":[
		{
			"name":"Cylinder.002",
			"primitives":[
				{
					"attributes":{
						"POSITION":0,
						"NORMAL":1,
						"TEXCOORD_0":2
					},
					"indices":3,
					"material":0
				}
			]
		},
		{
			"name":"Sphere.001",
			"primitives":[
				{
					"attributes":{
						"POSITION":4,
						"NORMAL":5,
						"TEXCOORD_0":6
					},
					"indices":7,
					"material":1
				}
			]
		},
		{
			"name":"Cylinder.005",
			"primitives":[
				{
					"attributes":{
						"POSITION":8,
						"NORMAL":9,
						"TEXCOORD_0":10
					},
					"indices":11,
					"material":0
				}
			]
		}
	],
	"accessors":[
		{
			"bufferView":0,
			"componentType":5126,
			"count":369,
			"max":[
				0.5893089175224304,
				1.599277377128601,
				1.4460171461105347
			],
			"min":[
				-2.787290573120117,
				-2.233060121536255,
				-0.4898865818977356
			],
			"type":"VEC3"
		},
		{
			"bufferView":1,
			"componentType":5126,
			"count":369,
			"type":"VEC3"
		},
		{
			"bufferView":2,
			"componentType":5126,
			"count":369,
			"type":"VEC2"
		},
		{
			"bufferView":3,
			"componentType":5123,
			"count":561,
			"type":"SCALAR"
		},
		{
			"bufferView":4,
			"componentType":5126,
			"count":420,
			"max":[
				0.029335618019104004,
				1.1007174253463745,
				2.243955135345459
			],
			"min":[
				-2.833204507827759,
				-0.6129096746444702,
				-0.9444192051887512
			],
			"type":"VEC3"
		},
		{
			"bufferView":5,
			"componentType":5126,
			"count":420,
			"type":"VEC3"
		},
		{
			"bufferView":6,
			"componentType":5126,
			"count":420,
			"type":"VEC2"
		},
		{
			"bufferView":7,
			"componentType":5123,
			"count":588,
			"type":"SCALAR"
		},
		{
			"bufferView":8,
			"componentType":5126,
			"count":117,
			"max":[
				-1.1480764150619507,
				1.509095311164856,
				1.2604080438613892
			],
			"min":[
				-2.7658562660217285,
				-0.18256875872612,
				0.5236693620681763
			],
			"type":"VEC3"
		},
		{
			"bufferView":9,
			"componentType":5126,
			"count":117,
			"type":"VEC3"
		},
		{
			"bufferView":10,
			"componentType":5126,
			"count":117,
			"type":"VEC2"
		},
		{
			"bufferView":11,
			"componentType":5123,
			"count":183,
			"type":"SCALAR"
		}
	],
	"bufferViews":[
		{
			"buffer":0,
			"byteLength":4428,
			"byteOffset":0,
			"target":34962
		},
		{
			"buffer":0,
			"byteLength":4428,
			"byteOffset":4428,
			"target":34962
		},
		{
			"buffer":0,
			"byteLength":2952,
			"byteOffset":8856,
			"target":34962
		},
		{
			"buffer":0,
			"byteLength":1122,
			"byteOffset":11808,
			"target":34963
		},
		{
			"buffer":0,
			"byteLength":5040,
			"byteOffset":12932,
			"target":34962
		},
		{
			"buffer":0,
			"byteLength":5040,
			"byteOffset":17972,
			"target":34962
		},
		{
			"buffer":0,
			"byteLength":3360,
			"byteOffset":23012,
			"target":34962
		},
		{
			"buffer":0,
			"byteLength":1176,
			"byteOffset":26372,
			"target":34963
		},
		{
			"buffer":0,
			"byteLength":1404,
			"byteOffset":27548,
			"target":34962
		},
		{
			"buffer":0,
			"byteLength":1404,
			"byteOffset":28952,
			"target":34962
		},
		{
			"buffer":0,
			"byteLength":936,
			"byteOffset":30356,
			"target":34962
		},
		{
			"buffer":0,
			"byteLength":366,
			"byteOffset":31292,
			"target":34963
		}
	],
	"buffers":[
		{
			"byteLength":31660,
			"uri":"data:application/octet-stream;base64,"
		}
	]
}
