{
	"asset":{
		"generator":"Khronos glTF Blender I/O v3.6.27",
		"version":"2.0"
	},
	"extensionsUsed":[
		"KHR_materials_specular",
		"KHR_materials_ior"
	],
	"scene":0,
	"scenes":[
		{
			"name":"Scene",
			"nodes":[
				0,
				1,
				2,
				3
			]
		}
	],
	"nodes":[
		{
			"mesh":0,
			"name":"Trunk-col",
			"rotation":[
				0,
				0,
				-0.3035222887992859,
				0.9528243541717529
			],
			"scale":[
				1.3709975481033325,
				1.3709975481033325,
				1.3709975481033325
			],
			"translation":[
				1.5312191247940063,
				2.1913256645202637,
				-0.15406998991966248
			]
		},
		{
			"mesh":1,
			"name":"Leaves",
			"rotation":[
				0,
				-0.9993184208869934,
				0,
				0.03691506385803223
			],
			"scale":[
				1.8431565761566162,
				3.152104377746582,
				1.8431565761566162
			],
			"translation":[
				-2.3631815910339355,
				5.66901969909668,
				0.9564793109893799
			]
		},
		{
			"mesh":2,
			"name":"Branch",
			"rotation":[
				0.05165177211165428,
				0.3323986828327179,
				-0.17789234220981598,
				0.9247689247131348
			],
			"scale":[
				0.6929047703742981,
				0.6929047703742981,
				0.6929047107696533
			],
			"translation":[
				0.4366140365600586,
				2.849785089492798,
				-1.0535334348678589
			]
		},
		{
			"mesh":3,
			"name":"Branch.001",
			"rotation":[
				0.18124745786190033,
				-0.8974205851554871,
				0.03824859857559204,
				0.4004032611846924
			],
			"scale":[
				0.6929047703742981,
				0.6929047703742981,
				0.6929047107696533
			],
			"translation":[
				-0.1896476298570633,
				2.762392044067383,
				0.5551717877388
			]
		}
	],
	"materials":[
		{
			"doubleSided":true,
			"extensions":{
				"KHR_materials_specular":{
					"specularColorFactor":[
						0,
						0,
						0
					]
				},
				"KHR_materials_ior":{
					"ior":1.4500000476837158
				}
			},
			"name":"Wood",
			"pbrMetallicRoughness":{
				"baseColorFactor":[
					0.07655882090330124,
					0.06268339604139328,
					0.07293792814016342,
					1
				],
				"metallicFactor":0
			}
		},
		{
			"doubleSided":true,
			"extensions":{
				"KHR_materials_specular":{
					"specularColorFactor":[
						0,
						0,
						0
					]
				},
				"KHR_materials_ior":{
					"ior":1.4500000476837158
				}
			},
			"name":"Leaves",
			"pbrMetallicRoughness":{
				"baseColorFactor":[
					0.800000011920929,
					0.800000011920929,
					0.800000011920929,
					1
				],
				"metallicFactor":0
			}
		}
	],
	"meshes":[
		{
			"name":"Cylinder.002",
			"primitives":[
				{
					"attributes":{
						"POSITION":0,
						"NORMAL":1,
						"TEXCOORD_0":2
					},
					"indices":3,
					"material":0
				}
			]
		},
		{
			"name":"Sphere.001",
			"primitives":[
				{
					"attributes":{
						"POSITION":4,
						"NORMAL":5,
						"TEXCOORD_0":6
					},
					"indices":7,
					"material":1
				}
			]
		},
		{
			"name":"Cylinder.005",
			"primitives":[
				{
					"attributes":{
						"POSITION":8,
						"NORMAL":9,
						"TEXCOORD_0":10
					},
					"indices":11,
					"material":0
				}
			]
		},
		{
			"name":"Cylinder.006",
			"primitives":[
				{
					"attributes":{
						"POSITION":12,
						"NORMAL":13,
						"TEXCOORD_0":14
					},
					"indices":15,
					"material":0
				}
			]
		}
	],
	"accessors":[
		{
			"bufferView":0,
			"componentType":5126,
			"count":388,
			"max":[
				0.5150462985038757,
				1.8491157293319702,
				0.48913609981536865
			],
			"min":[
				-2.9649569988250732,
				-2.0797882080078125,
				-0.3246384263038635
			],
			"type":"VEC3"
		},
		{
			"bufferView":1,
			"componentType":5126,
			"count":388,
			"type":"VEC3"
		},
		{
			"bufferView":2,
			"componentType":5126,
			"count":388,
			"type":"VEC2"
		},
		{
			"bufferView":3,
			"componentType":5123,
			"count":594,
			"type":"SCALAR"
		},
		{
			"bufferView":4,
			"componentType":5126,
			"count":420,
			"max":[
				0.048531778156757355,
				1.1914026737213135,
				2.181765556335449
			],
			"min":[
				-2.8386313915252686,
				-0.6932674050331116,
				-0.8905099630355835
			],
			"type":"VEC3"
		},
		{
			"bufferView":5,
			"componentType":5126,
			"count":420,
			"type":"VEC3"
		},
		{
			"bufferView":6,
			"componentType":5126,
			"count":420,
			"type":"VEC2"
		},
		{
			"bufferView":7,
			"componentType":5123,
			"count":588,
			"type":"SCALAR"
		},
		{
			"bufferView":8,
			"componentType":5126,
			"count":117,
			"max":[
				-1.1480764150619507,
				1.8519667387008667,
				1.147956132888794
			],
			"min":[
				-2.8509268760681152,
				-0.18256875872612,
				0.5236693620681763
			],
			"type":"VEC3"
		},
		{
			"bufferView":9,
			"componentType":5126,
			"count":117,
			"type":"VEC3"
		},
		{
			"bufferView":10,
			"componentType":5126,
			"count":117,
			"type":"VEC2"
		},
		{
			"bufferView":11,
			"componentType":5123,
			"count":183,
			"type":"SCALAR"
		},
		{
			"bufferView":12,
			"componentType":5126,
			"count":117,
			"max":[
				-1.4230506420135498,
				1.8519667387008667,
				1.166500210762024
			],
			"min":[
				-2.8509268760681152,
				0.5908827781677246,
				0.3804693818092346
			],
			"type":"VEC3"
		},
		{
			"bufferView":13,
			"componentType":5126,
			"count":117,
			"type":"VEC3"
		},
		{
			"bufferView":14,
			"componentType":5126,
			"count":117,
			"type":"VEC2"
		},
		{
			"bufferView":15,
			"componentType":5123,
			"count":183,
			"type":"SCALAR"
		}
	],
	"bufferViews":[
		{
			"buffer":0,
			"byteLength":4656,
			"byteOffset":0,
			"target":34962
		},
		{
			"buffer":0,
			"byteLength":4656,
			"byteOffset":4656,
			"target":34962
		},
		{
			"buffer":0,
			"byteLength":3104,
			"byteOffset":9312,
			"target":34962
		},
		{
			"buffer":0,
			"byteLength":1188,
			"byteOffset":12416,
			"target":34963
		},
		{
			"buffer":0,
			"byteLength":5040,
			"byteOffset":13604,
			"target":34962
		},
		{
			"buffer":0,
			"byteLength":5040,
			"byteOffset":18644,
			"target":34962
		},
		{
			"buffer":0,
			"byteLength":3360,
			"byteOffset":23684,
			"target":34962
		},
		{
			"buffer":0,
			"byteLength":1176,
			"byteOffset":27044,
			"target":34963
		},
		{
			"buffer":0,
			"byteLength":1404,
			"byteOffset":28220,
			"target":34962
		},
		{
			"buffer":0,
			"byteLength":1404,
			"byteOffset":29624,
			"target":34962
		},
		{
			"buffer":0,
			"byteLength":936,
			"byteOffset":31028,
			"target":34962
		},
		{
			"buffer":0,
			"byteLength":366,
			"byteOffset":31964,
			"target":34963
		},
		{
			"buffer":0,
			"byteLength":1404,
			"byteOffset":32332,
			"target":34962
		},
		{
			"buffer":0,
			"byteLength":1404,
			"byteOffset":33736,
			"target":34962
		},
		{
			"buffer":0,
			"byteLength":936,
			"byteOffset":35140,
			"target":34962
		},
		{
			"buffer":0,
			"byteLength":366,
			"byteOffset":36076,
			"target":34963
		}
	],
	"buffers":[
		{
			"byteLength":36444,
			"uri":"data:application/octet-stream;base64,"
		}
	]
}
