{
	"asset":{
		"generator":"Khronos glTF Blender I/O v3.6.27",
		"version":"2.0"
	},
	"scene":0,
	"scenes":[
		{
			"name":"Scene",
			"nodes":[
				0,
				1,
				2,
				3,
				4,
				5,
				6,
				7
			]
		}
	],
	"nodes":[
		{
			"mesh":0,
			"name":"PlayerHouse-col",
			"rotation":[
				0,
				-0.39294472336769104,
				0,
				0.9195621013641357
			],
			"scale":[
				0.3722510039806366,
				0.16342787444591522,
				0.3722510039806366
			],
			"translation":[
				154.13348388671875,
				10.58026123046875,
				325.3255615234375
			]
		},
		{
			"mesh":1,
			"name":"Ground",
			"scale":[
				0.20223306119441986,
				0.20223306119441986,
				0.20223306119441986
			],
			"translation":[
				59.502281188964844,
				2.3929247856140137,
				206.8282012939453
			]
		},
		{
			"mesh":2,
			"name":"NeighborHouseA-col",
			"scale":[
				0.33697500824928284,
				0.33697500824928284,
				0.41056692600250244
			],
			"translation":[
				69.60649871826172,
				6.095968246459961,
				363.1956481933594
			]
		},
		{
			"mesh":3,
			"name":"NeighborHouseB-col",
			"rotation":[
				0,
				-0.3407019078731537,
				0,
				0.940171480178833
			],
			"scale":[
				0.352851927280426,
				0.352851927280426,
				0.4299112558364868
			],
			"translation":[
				-15.726554870605469,
				6.095968246459961,
				332.1654357910156
			]
		},
		{
			"mesh":4,
			"name":"CulDeSac",
			"scale":[
				0.15610112249851227,
				0.23943722248077393,
				0.15610112249851227
			],
			"translation":[
				68.7355728149414,
				2.761462450027466,
				239.72802734375
			]
		},
		{
			"mesh":5,
			"name":"NeighborHouseC-col",
			"rotation":[
				0,
				0.7127673029899597,
				0,
				0.7014005780220032
			],
			"scale":[
				0.352851927280426,
				0.352851927280426,
				0.42991119623184204
			],
			"translation":[
				191.63876342773438,
				6.095968246459961,
				238.4781036376953
			]
		},
		{
			"mesh":6,
			"name":"NeighborHouseD-col",
			"rotation":[
				0,
				-0.19566622376441956,
				0,
				0.9806705713272095
			],
			"scale":[
				0.352851927280426,
				0.352851927280426,
				0.4299113154411316
			],
			"translation":[
				121.82078552246094,
				6.095968246459961,
				125.99362182617188
			]
		},
		{
			"mesh":7,
			"name":"NeighborHouseE-col",
			"rotation":[
				0,
				-0.7075507044792175,
				0,
				0.7066625952720642
			],
			"scale":[
				0.3528519570827484,
				0.352851927280426,
				0.42991119623184204
			],
			"translation":[
				-53.022499084472656,
				6.095968246459961,
				242.35687255859375
			]
		}
	],
	"materials":[
		{
			"doubleSided":true,
			"name":"LivingRoomFloor",
			"pbrMetallicRoughness":{
				"baseColorFactor":[
					0.8000000715255737,
					0.2934415340423584,
					0.007783728651702404,
					1
				],
				"metallicFactor":0,
				"roughnessFactor":0.5
			}
		},
		{
			"doubleSided":true,
			"name":"KitchenFloor",
			"pbrMetallicRoughness":{
				"baseColorFactor":[
					0.1511242538690567,
					0.21066589653491974,
					0.8000000715255737,
					1
				],
				"metallicFactor":0,
				"roughnessFactor":0.5
			}
		},
		{
			"doubleSided":true,
			"name":"BathroomFloor",
			"pbrMetallicRoughness":{
				"baseColorFactor":[
					0.009678450413048267,
					0.8000000715255737,
					0.5685411691665649,
					1
				],
				"metallicFactor":0,
				"roughnessFactor":0.5
			}
		},
		{
			"doubleSided":true,
			"name":"BedroomFloor",
			"pbrMetallicRoughness":{
				"baseColorFactor":[
					0.8000000715255737,
					0.13161784410476685,
					0.14828793704509735,
					1
				],
				"metallicFactor":0,
				"roughnessFactor":0.5
			}
		},
		{
			"doubleSided":true,
			"name":"MainWalls",
			"pbrMetallicRoughness":{
				"baseColorFactor":[
					0.800000011920929,
					0.800000011920929,
					0.800000011920929,
					1
				],
				"metallicFactor":0,
				"roughnessFactor":0.5
			}
		},
		{
			"doubleSided":true,
			"name":"BathroomWall",
			"pbrMetallicRoughness":{
				"baseColorFactor":[
					0,
					0.004472270607948303,
					0.8000000715255737,
					1
				],
				"metallicFactor":0,
				"roughnessFactor":0.5
			}
		},
		{
			"doubleSided":true,
			"name":"BedroomWall",
			"pbrMetallicRoughness":{
				"baseColorFactor":[
					0.48043981194496155,
					0.017623499035835266,
					0.8000000715255737,
					1
				],
				"metallicFactor":0,
				"roughnessFactor":0.5
			}
		},
		{
			"doubleSided":true,
			"name":"ExteriorWall",
			"pbrMetallicRoughness":{
				"baseColorFactor":[
					0.6915019154548645,
					0.8000000715255737,
					0,
					1
				],
				"metallicFactor":0,
				"roughnessFactor":0.5
			}
		},
		{
			"doubleSided":true,
			"name":"Ceiling",
			"pbrMetallicRoughness":{
				"baseColorFactor":[
					0.023386413231492043,
					0.8000000715255737,
					0.03669532388448715,
					1
				],
				"metallicFactor":0,
				"roughnessFactor":0.5
			}
		},
		{
			"doubleSided":true,
			"name":"Roof",
			"pbrMetallicRoughness":{
				"baseColorFactor":[
					0.01986103132367134,
					0.04954886436462402,
					0.00384397036395967,
					1
				],
				"metallicFactor":0,
				"roughnessFactor":0.5
			}
		},
		{
			"doubleSided":true,
			"name":"Ground",
			"pbrMetallicRoughness":{
				"baseColorFactor":[
					0.040124572813510895,
					0.8000000715255737,
					0.010482310317456722,
					1
				],
				"metallicFactor":0,
				"roughnessFactor":0.5
			}
		},
		{
			"doubleSided":true,
			"name":"NeighborAExteriorWall",
			"pbrMetallicRoughness":{
				"baseColorFactor":[
					0.8000000715255737,
					0.4468199908733368,
					0.29676130414009094,
					1
				],
				"metallicFactor":0,
				"roughnessFactor":0.5
			}
		},
		{
			"doubleSided":true,
			"name":"NeighborBExtWall",
			"pbrMetallicRoughness":{
				"baseColorFactor":[
					0.11046556383371353,
					0.17925946414470673,
					0.8000000715255737,
					1
				],
				"metallicFactor":0,
				"roughnessFactor":0.5
			}
		},
		{
			"doubleSided":true,
			"name":"Sidewalk",
			"pbrMetallicRoughness":{
				"baseColorFactor":[
					0.35055452585220337,
					0.35055452585220337,
					0.35055452585220337,
					1
				],
				"metallicFactor":0,
				"roughnessFactor":0.5
			}
		},
		{
			"doubleSided":true,
			"name":"Asphalt",
			"pbrMetallicRoughness":{
				"baseColorFactor":[
					0.03106330893933773,
					0.03106330893933773,
					0.03106330893933773,
					1
				],
				"metallicFactor":0,
				"roughnessFactor":0.5
			}
		},
		{
			"doubleSided":true,
			"name":"HouseCExtWall",
			"pbrMetallicRoughness":{
				"baseColorFactor":[
					0.4870348870754242,
					0.014572973363101482,
					0.8000000715255737,
					1
				],
				"metallicFactor":0,
				"roughnessFactor":0.5
			}
		},
		{
			"doubleSided":true,
			"name":"HouseDExtWall",
			"pbrMetallicRoughness":{
				"baseColorFactor":[
					0.8000000715255737,
					0.38577741384506226,
					0.030947890132665634,
					1
				],
				"metallicFactor":0,
				"roughnessFactor":0.5
			}
		}
	],
	"meshes":[
		{
			"name":"Cube",
			"primitives":[
				{
					"attributes":{
						"POSITION":0,
						"NORMAL":1,
						"TEXCOORD_0":2
					},
					"indices":3,
					"material":0
				},
				{
					"attributes":{
						"POSITION":4,
						"NORMAL":5,
						"TEXCOORD_0":6
					},
					"indices":7,
					"material":1
				},
				{
					"attributes":{
						"POSITION":8,
						"NORMAL":9,
						"TEXCOORD_0":10
					},
					"indices":11,
					"material":2
				},
				{
					"attributes":{
						"POSITION":12,
						"NORMAL":13,
						"TEXCOORD_0":14
					},
					"indices":15,
					"material":3
				},
				{
					"attributes":{
						"POSITION":16,
						"NORMAL":17,
						"TEXCOORD_0":18
					},
					"indices":19,
					"material":4
				},
				{
					"attributes":{
						"POSITION":20,
						"NORMAL":21,
						"TEXCOORD_0":22
					},
					"indices":23,
					"material":5
				},
				{
					"attributes":{
						"POSITION":24,
						"NORMAL":25,
						"TEXCOORD_0":26
					},
					"indices":27,
					"material":6
				},
				{
					"attributes":{
						"POSITION":28,
						"NORMAL":29,
						"TEXCOORD_0":30
					},
					"indices":31,
					"material":7
				},
				{
					"attributes":{
						"POSITION":32,
						"NORMAL":33,
						"TEXCOORD_0":34
					},
					"indices":35,
					"material":8
				},
				{
					"attributes":{
						"POSITION":36,
						"NORMAL":37,
						"TEXCOORD_0":38
					},
					"indices":39,
					"material":9
				}
			]
		},
		{
			"name":"Plane",
			"primitives":[
				{
					"attributes":{
						"POSITION":40,
						"NORMAL":41,
						"TEXCOORD_0":42
					},
					"indices":43,
					"material":10
				}
			]
		},
		{
			"name":"Cube.003",
			"primitives":[
				{
					"attributes":{
						"POSITION":44,
						"NORMAL":45,
						"TEXCOORD_0":46
					},
					"indices":47,
					"material":11
				}
			]
		},
		{
			"name":"Cube.004",
			"primitives":[
				{
					"attributes":{
						"POSITION":48,
						"NORMAL":49,
						"TEXCOORD_0":50
					},
					"indices":47,
					"material":12
				}
			]
		},
		{
			"name":"Cylinder",
			"primitives":[
				{
					"attributes":{
						"POSITION":51,
						"NORMAL":52,
						"TEXCOORD_0":53
					},
					"indices":54,
					"material":13
				},
				{
					"attributes":{
						"POSITION":55,
						"NORMAL":56,
						"TEXCOORD_0":57
					},
					"indices":58,
					"material":14
				}
			]
		},
		{
			"name":"Cube.005",
			"primitives":[
				{
					"attributes":{
						"POSITION":59,
						"NORMAL":60,
						"TEXCOORD_0":61
					},
					"indices":47,
					"material":15
				}
			]
		},
		{
			"name":"Cube.006",
			"primitives":[
				{
					"attributes":{
						"POSITION":62,
						"NORMAL":63,
						"TEXCOORD_0":64
					},
					"indices":47,
					"material":16
				}
			]
		},
		{
			"name":"Cube.007",
			"primitives":[
				{
					"attributes":{
						"POSITION":65,
						"NORMAL":66,
						"TEXCOORD_0":67
					},
					"indices":47
				}
			]
		}
	],
	"accessors":[
		{
			"bufferView":0,
			"componentType":5126,
			"count":187,
			"max":[
				64.95263671875,
				35.846168518066406,
				42.22848129272461
			],
			"min":[
				-60.065982818603516,
				-51.13197326660156,
				-34.48405075073242
			],
			"type":"VEC3"
		},
		{
			"bufferView":1,
			"componentType":5126,
			"count":187,
			"type":"VEC3"
		},
		{
			"bufferView":2,
			"componentType":5126,
			"count":187,
			"type":"VEC2"
		},
		{
			"bufferView":3,
			"componentType":5123,
			"count":441,
			"type":"SCALAR"
		},
		{
			"bufferView":4,
			"componentType":5126,
			"count":13,
			"max":[
				63.4192008972168,
				-49.999996185302734,
				13.455702781677246
			],
			"min":[
				9.970396041870117,
				-50,
				-33.016326904296875
			],
			"type":"VEC3"
		},
		{
			"bufferView":5,
			"componentType":5126,
			"count":13,
			"type":"VEC3"
		},
		{
			"bufferView":6,
			"componentType":5126,
			"count":13,
			"type":"VEC2"
		},
		{
			"bufferView":7,
			"componentType":5123,
			"count":33,
			"type":"SCALAR"
		},
		{
			"bufferView":8,
			"componentType":5126,
			"count":10,
			"max":[
				19.214641571044922,
				-49.999996185302734,
				40.50376892089844
			],
			"min":[
				-8.639431953430176,
				-50,
				13.455703735351562
			],
			"type":"VEC3"
		},
		{
			"bufferView":9,
			"componentType":5126,
			"count":10,
			"type":"VEC3"
		},
		{
			"bufferView":10,
			"componentType":5126,
			"count":10,
			"type":"VEC2"
		},
		{
			"bufferView":11,
			"componentType":5123,
			"count":24,
			"type":"SCALAR"
		},
		{
			"bufferView":12,
			"componentType":5126,
			"count":10,
			"max":[
				-9.819169998168945,
				-49.999996185302734,
				40.50376892089844
			],
			"min":[
				-50,
				-50,
				13.455703735351562
			],
			"type":"VEC3"
		},
		{
			"bufferView":13,
			"componentType":5126,
			"count":10,
			"type":"VEC3"
		},
		{
			"bufferView":14,
			"componentType":5126,
			"count":10,
			"type":"VEC2"
		},
		{
			"bufferView":15,
			"componentType":5123,
			"count":24,
			"type":"SCALAR"
		},
		{
			"bufferView":16,
			"componentType":5126,
			"count":283,
			"max":[
				64.95263671875,
				21.876588821411133,
				13.455704689025879
			],
			"min":[
				-51.55036544799805,
				-50,
				-34.48405075073242
			],
			"type":"VEC3"
		},
		{
			"bufferView":17,
			"componentType":5126,
			"count":283,
			"type":"VEC3"
		},
		{
			"bufferView":18,
			"componentType":5126,
			"count":283,
			"type":"VEC2"
		},
		{
			"bufferView":19,
			"componentType":5123,
			"count":630,
			"type":"SCALAR"
		},
		{
			"bufferView":20,
			"componentType":5126,
			"count":54,
			"max":[
				17.822370529174805,
				21.876585006713867,
				40.50376892089844
			],
			"min":[
				-8.639431953430176,
				-50,
				13.455703735351562
			],
			"type":"VEC3"
		},
		{
			"bufferView":21,
			"componentType":5126,
			"count":54,
			"type":"VEC3"
		},
		{
			"bufferView":22,
			"componentType":5126,
			"count":54,
			"type":"VEC2"
		},
		{
			"bufferView":23,
			"componentType":5123,
			"count":138,
			"type":"SCALAR"
		},
		{
			"bufferView":24,
			"componentType":5126,
			"count":103,
			"max":[
				-8.639431953430176,
				21.876588821411133,
				42.22848129272461
			],
			"min":[
				-51.55036544799805,
				-50,
				13.455703735351562
			],
			"type":"VEC3"
		},
		{
			"bufferView":25,
			"componentType":5126,
			"count":103,
			"type":"VEC3"
		},
		{
			"bufferView":26,
			"componentType":5126,
			"count":103,
			"type":"VEC2"
		},
		{
			"bufferView":27,
			"componentType":5123,
			"count":234,
			"type":"SCALAR"
		},
		{
			"bufferView":28,
			"componentType":5126,
			"count":221,
			"max":[
				64.95263671875,
				50.050201416015625,
				42.22848129272461
			],
			"min":[
				-51.55036544799805,
				-50,
				-34.48405075073242
			],
			"type":"VEC3"
		},
		{
			"bufferView":29,
			"componentType":5126,
			"count":221,
			"type":"VEC3"
		},
		{
			"bufferView":30,
			"componentType":5126,
			"count":221,
			"type":"VEC2"
		},
		{
			"bufferView":31,
			"componentType":5123,
			"count":726,
			"type":"SCALAR"
		},
		{
			"bufferView":32,
			"componentType":5126,
			"count":42,
			"max":[
				63.4192008972168,
				21.876588821411133,
				40.50376892089844
			],
			"min":[
				-50,
				21.8765811920166,
				-33.016326904296875
			],
			"type":"VEC3"
		},
		{
			"bufferView":33,
			"componentType":5126,
			"count":42,
			"type":"VEC3"
		},
		{
			"bufferView":34,
			"componentType":5126,
			"count":42,
			"type":"VEC2"
		},
		{
			"bufferView":35,
			"componentType":5123,
			"count":108,
			"type":"SCALAR"
		},
		{
			"bufferView":36,
			"componentType":5126,
			"count":17,
			"max":[
				64.95263671875,
				50.050201416015625,
				42.22848129272461
			],
			"min":[
				-51.55036544799805,
				21.876585006713867,
				-34.48405075073242
			],
			"type":"VEC3"
		},
		{
			"bufferView":37,
			"componentType":5126,
			"count":17,
			"type":"VEC3"
		},
		{
			"bufferView":38,
			"componentType":5126,
			"count":17,
			"type":"VEC2"
		},
		{
			"bufferView":39,
			"componentType":5123,
			"count":27,
			"type":"SCALAR"
		},
		{
			"bufferView":40,
			"componentType":5126,
			"count":4,
			"max":[
				1000,
				0,
				1000
			],
			"min":[
				-1000,
				0,
				-1000
			],
			"type":"VEC3"
		},
		{
			"bufferView":41,
			"componentType":5126,
			"count":4,
			"type":"VEC3"
		},
		{
			"bufferView":42,
			"componentType":5126,
			"count":4,
			"type":"VEC2"
		},
		{
			"bufferView":43,
			"componentType":5123,
			"count":6,
			"type":"SCALAR"
		},
		{
			"bufferView":44,
			"componentType":5126,
			"count":24,
			"max":[
				50,
				50,
				50
			],
			"min":[
				-50,
				-50,
				-50
			],
			"type":"VEC3"
		},
		{
			"bufferView":45,
			"componentType":5126,
			"count":24,
			"type":"VEC3"
		},
		{
			"bufferView":46,
			"componentType":5126,
			"count":24,
			"type":"VEC2"
		},
		{
			"bufferView":47,
			"componentType":5123,
			"count":36,
			"type":"SCALAR"
		},
		{
			"bufferView":48,
			"componentType":5126,
			"count":24,
			"max":[
				50,
				50,
				50
			],
			"min":[
				-50,
				-50,
				-50
			],
			"type":"VEC3"
		},
		{
			"bufferView":49,
			"componentType":5126,
			"count":24,
			"type":"VEC3"
		},
		{
			"bufferView":50,
			"componentType":5126,
			"count":24,
			"type":"VEC2"
		},
		{
			"bufferView":51,
			"componentType":5126,
			"count":334,
			"max":[
				600,
				1,
				600
			],
			"min":[
				-1168.320068359375,
				-1,
				-1809.837158203125
			],
			"type":"VEC3"
		},
		{
			"bufferView":52,
			"componentType":5126,
			"count":334,
			"type":"VEC3"
		},
		{
			"bufferView":53,
			"componentType":5126,
			"count":334,
			"type":"VEC2"
		},
		{
			"bufferView":54,
			"componentType":5123,
			"count":588,
			"type":"SCALAR"
		},
		{
			"bufferView":55,
			"componentType":5126,
			"count":38,
			"max":[
				600,
				-1,
				600
			],
			"min":[
				-1168.320068359375,
				-1,
				-1809.837158203125
			],
			"type":"VEC3"
		},
		{
			"bufferView":56,
			"componentType":5126,
			"count":38,
			"type":"VEC3"
		},
		{
			"bufferView":57,
			"componentType":5126,
			"count":38,
			"type":"VEC2"
		},
		{
			"bufferView":58,
			"componentType":5123,
			"count":120,
			"type":"SCALAR"
		},
		{
			"bufferView":59,
			"componentType":5126,
			"count":24,
			"max":[
				50,
				50,
				50
			],
			"min":[
				-50,
				-50,
				-50
			],
			"type":"VEC3"
		},
		{
			"bufferView":60,
			"componentType":5126,
			"count":24,
			"type":"VEC3"
		},
		{
			"bufferView":61,
			"componentType":5126,
			"count":24,
			"type":"VEC2"
		},
		{
			"bufferView":62,
			"componentType":5126,
			"count":24,
			"max":[
				50,
				50,
				50
			],
			"min":[
				-50,
				-50,
				-50
			],
			"type":"VEC3"
		},
		{
			"bufferView":63,
			"componentType":5126,
			"count":24,
			"type":"VEC3"
		},
		{
			"bufferView":64,
			"componentType":5126,
			"count":24,
			"type":"VEC2"
		},
		{
			"bufferView":65,
			"componentType":5126,
			"count":24,
			"max":[
				50,
				50,
				50
			],
			"min":[
				-50,
				-50,
				-50
			],
			"type":"VEC3"
		},
		{
			"bufferView":66,
			"componentType":5126,
			"count":24,
			"type":"VEC3"
		},
		{
			"bufferView":67,
			"componentType":5126,
			"count":24,
			"type":"VEC2"
		}
	],
	"bufferViews":[
		{
			"buffer":0,
			"byteLength":2244,
			"byteOffset":0,
			"target":34962
		},
		{
			"buffer":0,
			"byteLength":2244,
			"byteOffset":2244,
			"target":34962
		},
		{
			"buffer":0,
			"byteLength":1496,
			"byteOffset":4488,
			"target":34962
		},
		{
			"buffer":0,
			"byteLength":882,
			"byteOffset":5984,
			"target":34963
		},
		{
			"buffer":0,
			"byteLength":156,
			"byteOffset":6868,
			"target":34962
		},
		{
			"buffer":0,
			"byteLength":156,
			"byteOffset":7024,
			"target":34962
		},
		{
			"buffer":0,
			"byteLength":104,
			"byteOffset":7180,
			"target":34962
		},
		{
			"buffer":0,
			"byteLength":66,
			"byteOffset":7284,
			"target":34963
		},
		{
			"buffer":0,
			"byteLength":120,
			"byteOffset":7352,
			"target":34962
		},
		{
			"buffer":0,
			"byteLength":120,
			"byteOffset":7472,
			"target":34962
		},
		{
			"buffer":0,
			"byteLength":80,
			"byteOffset":7592,
			"target":34962
		},
		{
			"buffer":0,
			"byteLength":48,
			"byteOffset":7672,
			"target":34963
		},
		{
			"buffer":0,
			"byteLength":120,
			"byteOffset":7720,
			"target":34962
		},
		{
			"buffer":0,
			"byteLength":120,
			"byteOffset":7840,
			"target":34962
		},
		{
			"buffer":0,
			"byteLength":80,
			"byteOffset":7960,
			"target":34962
		},
		{
			"buffer":0,
			"byteLength":48,
			"byteOffset":8040,
			"target":34963
		},
		{
			"buffer":0,
			"byteLength":3396,
			"byteOffset":8088,
			"target":34962
		},
		{
			"buffer":0,
			"byteLength":3396,
			"byteOffset":11484,
			"target":34962
		},
		{
			"buffer":0,
			"byteLength":2264,
			"byteOffset":14880,
			"target":34962
		},
		{
			"buffer":0,
			"byteLength":1260,
			"byteOffset":17144,
			"target":34963
		},
		{
			"buffer":0,
			"byteLength":648,
			"byteOffset":18404,
			"target":34962
		},
		{
			"buffer":0,
			"byteLength":648,
			"byteOffset":19052,
			"target":34962
		},
		{
			"buffer":0,
			"byteLength":432,
			"byteOffset":19700,
			"target":34962
		},
		{
			"buffer":0,
			"byteLength":276,
			"byteOffset":20132,
			"target":34963
		},
		{
			"buffer":0,
			"byteLength":1236,
			"byteOffset":20408,
			"target":34962
		},
		{
			"buffer":0,
			"byteLength":1236,
			"byteOffset":21644,
			"target":34962
		},
		{
			"buffer":0,
			"byteLength":824,
			"byteOffset":22880,
			"target":34962
		},
		{
			"buffer":0,
			"byteLength":468,
			"byteOffset":23704,
			"target":34963
		},
		{
			"buffer":0,
			"byteLength":2652,
			"byteOffset":24172,
			"target":34962
		},
		{
			"buffer":0,
			"byteLength":2652,
			"byteOffset":26824,
			"target":34962
		},
		{
			"buffer":0,
			"byteLength":1768,
			"byteOffset":29476,
			"target":34962
		},
		{
			"buffer":0,
			"byteLength":1452,
			"byteOffset":31244,
			"target":34963
		},
		{
			"buffer":0,
			"byteLength":504,
			"byteOffset":32696,
			"target":34962
		},
		{
			"buffer":0,
			"byteLength":504,
			"byteOffset":33200,
			"target":34962
		},
		{
			"buffer":0,
			"byteLength":336,
			"byteOffset":33704,
			"target":34962
		},
		{
			"buffer":0,
			"byteLength":216,
			"byteOffset":34040,
			"target":34963
		},
		{
			"buffer":0,
			"byteLength":204,
			"byteOffset":34256,
			"target":34962
		},
		{
			"buffer":0,
			"byteLength":204,
			"byteOffset":34460,
			"target":34962
		},
		{
			"buffer":0,
			"byteLength":136,
			"byteOffset":34664,
			"target":34962
		},
		{
			"buffer":0,
			"byteLength":54,
			"byteOffset":34800,
			"target":34963
		},
		{
			"buffer":0,
			"byteLength":48,
			"byteOffset":34856,
			"target":34962
		},
		{
			"buffer":0,
			"byteLength":48,
			"byteOffset":34904,
			"target":34962
		},
		{
			"buffer":0,
			"byteLength":32,
			"byteOffset":34952,
			"target":34962
		},
		{
			"buffer":0,
			"byteLength":12,
			"byteOffset":34984,
			"target":34963
		},
		{
			"buffer":0,
			"byteLength":288,
			"byteOffset":34996,
			"target":34962
		},
		{
			"buffer":0,
			"byteLength":288,
			"byteOffset":35284,
			"target":34962
		},
		{
			"buffer":0,
			"byteLength":192,
			"byteOffset":35572,
			"target":34962
		},
		{
			"buffer":0,
			"byteLength":72,
			"byteOffset":35764,
			"target":34963
		},
		{
			"buffer":0,
			"byteLength":288,
			"byteOffset":35836,
			"target":34962
		},
		{
			"buffer":0,
			"byteLength":288,
			"byteOffset":36124,
			"target":34962
		},
		{
			"buffer":0,
			"byteLength":192,
			"byteOffset":36412,
			"target":34962
		},
		{
			"buffer":0,
			"byteLength":4008,
			"byteOffset":36604,
			"target":34962
		},
		{
			"buffer":0,
			"byteLength":4008,
			"byteOffset":40612,
			"target":34962
		},
		{
			"buffer":0,
			"byteLength":2672,
			"byteOffset":44620,
			"target":34962
		},
		{
			"buffer":0,
			"byteLength":1176,
			"byteOffset":47292,
			"target":34963
		},
		{
			"buffer":0,
			"byteLength":456,
			"byteOffset":48468,
			"target":34962
		},
		{
			"buffer":0,
			"byteLength":456,
			"byteOffset":48924,
			"target":34962
		},
		{
			"buffer":0,
			"byteLength":304,
			"byteOffset":49380,
			"target":34962
		},
		{
			"buffer":0,
			"byteLength":240,
			"byteOffset":49684,
			"target":34963
		},
		{
			"buffer":0,
			"byteLength":288,
			"byteOffset":49924,
			"target":34962
		},
		{
			"buffer":0,
			"byteLength":288,
			"byteOffset":50212,
			"target":34962
		},
		{
			"buffer":0,
			"byteLength":192,
			"byteOffset":50500,
			"target":34962
		},
		{
			"buffer":0,
			"byteLength":288,
			"byteOffset":50692,
			"target":34962
		},
		{
			"buffer":0,
			"byteLength":288,
			"byteOffset":50980,
			"target":34962
		},
		{
			"buffer":0,
			"byteLength":192,
			"byteOffset":51268,
			"target":34962
		},
		{
			"buffer":0,
			"byteLength":288,
			"byteOffset":51460,
			"target":34962
		},
		{
			"buffer":0,
			"byteLength":288,
			"byteOffset":51748,
			"target":34962
		},
		{
			"buffer":0,
			"byteLength":192,
			"byteOffset":52036,
			"target":34962
		}
	],
	"buffers":[
		{
			"byteLength":52228,
			"uri":"data:application/octet-stream;base64,"
		}
	]
}
