{
	"asset":{
		"generator":"Khronos glTF Blender I/O v3.6.27",
		"version":"2.0"
	},
	"extensionsUsed":[
		"KHR_materials_specular",
		"KHR_materials_ior"
	],
	"scene":0,
	"scenes":[
		{
			"name":"Scene",
			"nodes":[
				0,
				1,
				2
			]
		}
	],
	"nodes":[
		{
			"mesh":0,
			"name":"Building",
			"scale":[
				4.608088970184326,
				4.608088970184326,
				4.608088970184326
			],
			"translation":[
				0,
				4.423826217651367,
				-12.523917198181152
			]
		},
		{
			"mesh":1,
			"name":"Gate",
			"scale":[
				1,
				3.940335988998413,
				1
			],
			"translation":[
				5.363986015319824,
				3.982353925704956,
				-9.721381187438965
			]
		},
		{
			"mesh":2,
			"name":"Barbwire",
			"rotation":[
				0,
				0,
				-0.7072497010231018,
				0.7069638967514038
			],
			"scale":[
				1.0000135898590088,
				12.983047485351562,
				1
			],
			"translation":[
				17.473588943481445,
				8.838385581970215,
				-9.684976577758789
			]
		}
	],
	"materials":[
		{
			"doubleSided":true,
			"name":"Material",
			"pbrMetallicRoughness":{
				"baseColorFactor":[
					0.800000011920929,
					0.800000011920929,
					0.800000011920929,
					1
				],
				"metallicFactor":0,
				"roughnessFactor":0.5
			}
		},
		{
			"alphaMode":"BLEND",
			"doubleSided":true,
			"name":"Window",
			"pbrMetallicRoughness":{
				"baseColorFactor":[
					0.05740797519683838,
					0.8000000715255737,
					0.7771444916725159,
					0.3700787425041199
				],
				"metallicFactor":0,
				"roughnessFactor":0.5
			}
		},
		{
			"doubleSided":true,
			"name":"RoofTrim",
			"pbrMetallicRoughness":{
				"baseColorFactor":[
					0.052217718213796616,
					0.052217718213796616,
					0.052217718213796616,
					1
				],
				"metallicFactor":0,
				"roughnessFactor":0.5
			}
		},
		{
			"doubleSided":true,
			"name":"Roof",
			"pbrMetallicRoughness":{
				"baseColorFactor":[
					0.690066397190094,
					0.8000000715255737,
					0.35139694809913635,
					1
				],
				"metallicFactor":0,
				"roughnessFactor":0.5
			}
		},
		{
			"doubleSided":true,
			"name":"Counter",
			"pbrMetallicRoughness":{
				"baseColorFactor":[
					0.00985335186123848,
					0.0134783536195755,
					0.02365044876933098,
					1
				],
				"metallicFactor":0,
				"roughnessFactor":0.5
			}
		},
		{
			"doubleSided":true,
			"extensions":{
				"KHR_materials_specular":{
					"specularColorFactor":[
						0,
						0,
						0
					]
				},
				"KHR_materials_ior":{
					"ior":1.4500000476837158
				}
			},
			"name":"GateFrame",
			"pbrMetallicRoughness":{
				"baseColorFactor":[
					0.11068852245807648,
					0.0201969463378191,
					0.013359659351408482,
					1
				],
				"roughnessFactor":0.5
			}
		},
		{
			"doubleSided":true,
			"extensions":{
				"KHR_materials_specular":{
					"specularColorFactor":[
						0,
						0,
						0
					]
				},
				"KHR_materials_ior":{
					"ior":1.4500000476837158
				}
			},
			"name":"Gate",
			"pbrMetallicRoughness":{
				"baseColorFactor":[
					0.2733997404575348,
					0.2627337872982025,
					0.8000000715255737,
					1
				],
				"metallicFactor":0,
				"roughnessFactor":0.5
			}
		},
		{
			"doubleSided":true,
			"extensions":{
				"KHR_materials_specular":{
					"specularColorFactor":[
						0,
						0,
						0
					]
				},
				"KHR_materials_ior":{
					"ior":1.4500000476837158
				}
			},
			"name":"Barbwire",
			"pbrMetallicRoughness":{
				"baseColorFactor":[
					0.8000000715255737,
					0.5786236524581909,
					0.38188406825065613,
					1
				],
				"roughnessFactor":0.5
			}
		}
	],
	"meshes":[
		{
			"name":"Cube.001",
			"primitives":[
				{
					"attributes":{
						"POSITION":0,
						"NORMAL":1,
						"TEXCOORD_0":2
					},
					"indices":3,
					"material":0
				},
				{
					"attributes":{
						"POSITION":4,
						"NORMAL":5,
						"TEXCOORD_0":6
					},
					"indices":7,
					"material":1
				},
				{
					"attributes":{
						"POSITION":8,
						"NORMAL":9,
						"TEXCOORD_0":10
					},
					"indices":11,
					"material":2
				},
				{
					"attributes":{
						"POSITION":12,
						"NORMAL":13,
						"TEXCOORD_0":14
					},
					"indices":15,
					"material":3
				},
				{
					"attributes":{
						"POSITION":16,
						"NORMAL":17,
						"TEXCOORD_0":18
					},
					"indices":19,
					"material":4
				}
			]
		},
		{
			"name":"Cube.002",
			"primitives":[
				{
					"attributes":{
						"POSITION":20,
						"NORMAL":21,
						"TEXCOORD_0":22
					},
					"indices":23,
					"material":5
				},
				{
					"attributes":{
						"POSITION":24,
						"NORMAL":25,
						"TEXCOORD_0":26
					},
					"indices":27,
					"material":6
				}
			]
		},
		{
			"name":"Cylinder",
			"primitives":[
				{
					"attributes":{
						"POSITION":28,
						"NORMAL":29,
						"TEXCOORD_0":30
					},
					"indices":31,
					"material":7
				}
			]
		}
	],
	"accessors":[
		{
			"bufferView":0,
			"componentType":5126,
			"count":88,
			"max":[
				1,
				0.9183475375175476,
				1
			],
			"min":[
				-1,
				-1,
				-1
			],
			"type":"VEC3"
		},
		{
			"bufferView":1,
			"componentType":5126,
			"count":88,
			"type":"VEC3"
		},
		{
			"bufferView":2,
			"componentType":5126,
			"count":88,
			"type":"VEC2"
		},
		{
			"bufferView":3,
			"componentType":5123,
			"count":183,
			"type":"SCALAR"
		},
		{
			"bufferView":4,
			"componentType":5126,
			"count":8,
			"max":[
				0.9147293567657471,
				0.3522831201553345,
				0
			],
			"min":[
				-0.01799502968788147,
				-0.4811859130859375,
				-0.9189653396606445
			],
			"type":"VEC3"
		},
		{
			"bufferView":5,
			"componentType":5126,
			"count":8,
			"type":"VEC3"
		},
		{
			"bufferView":6,
			"componentType":5126,
			"count":8,
			"type":"VEC2"
		},
		{
			"bufferView":7,
			"componentType":5123,
			"count":12,
			"type":"SCALAR"
		},
		{
			"bufferView":8,
			"componentType":5126,
			"count":48,
			"max":[
				1.0149132013320923,
				0.9693803191184998,
				1.0228328704833984
			],
			"min":[
				-1.0252137184143066,
				0.9183475375175476,
				-1.01729416847229
			],
			"type":"VEC3"
		},
		{
			"bufferView":9,
			"componentType":5126,
			"count":48,
			"type":"VEC3"
		},
		{
			"bufferView":10,
			"componentType":5126,
			"count":48,
			"type":"VEC2"
		},
		{
			"bufferView":11,
			"componentType":5123,
			"count":96,
			"type":"SCALAR"
		},
		{
			"bufferView":12,
			"componentType":5126,
			"count":4,
			"max":[
				0.8290514945983887,
				0.8918172121047974,
				1
			],
			"min":[
				-0.8326212167739868,
				0.8918172121047974,
				-0.8394504189491272
			],
			"type":"VEC3"
		},
		{
			"bufferView":13,
			"componentType":5126,
			"count":4,
			"type":"VEC3"
		},
		{
			"bufferView":14,
			"componentType":5126,
			"count":4,
			"type":"VEC2"
		},
		{
			"bufferView":15,
			"componentType":5123,
			"count":6,
			"type":"SCALAR"
		},
		{
			"bufferView":16,
			"componentType":5126,
			"count":12,
			"max":[
				1,
				-0.4811859130859375,
				0
			],
			"min":[
				-0.01799502968788147,
				-0.4811859130859375,
				-1
			],
			"type":"VEC3"
		},
		{
			"bufferView":17,
			"componentType":5126,
			"count":12,
			"type":"VEC3"
		},
		{
			"bufferView":18,
			"componentType":5126,
			"count":12,
			"type":"VEC2"
		},
		{
			"bufferView":19,
			"componentType":5123,
			"count":24,
			"type":"SCALAR"
		},
		{
			"bufferView":20,
			"componentType":5126,
			"count":210,
			"max":[
				25.2628231048584,
				1,
				0.2116008996963501
			],
			"min":[
				-1,
				-1,
				-0.2116008996963501
			],
			"type":"VEC3"
		},
		{
			"bufferView":21,
			"componentType":5126,
			"count":210,
			"type":"VEC3"
		},
		{
			"bufferView":22,
			"componentType":5126,
			"count":210,
			"type":"VEC2"
		},
		{
			"bufferView":23,
			"componentType":5123,
			"count":582,
			"type":"SCALAR"
		},
		{
			"bufferView":24,
			"componentType":5126,
			"count":20,
			"max":[
				25.2628231048584,
				1,
				-0.008450515568256378
			],
			"min":[
				-1,
				-1,
				-0.008450515568256378
			],
			"type":"VEC3"
		},
		{
			"bufferView":25,
			"componentType":5126,
			"count":20,
			"type":"VEC3"
		},
		{
			"bufferView":26,
			"componentType":5126,
			"count":20,
			"type":"VEC2"
		},
		{
			"bufferView":27,
			"componentType":5123,
			"count":54,
			"type":"SCALAR"
		},
		{
			"bufferView":28,
			"componentType":5126,
			"count":32,
			"max":[
				1,
				1,
				1
			],
			"min":[
				-1,
				-1,
				-1
			],
			"type":"VEC3"
		},
		{
			"bufferView":29,
			"componentType":5126,
			"count":32,
			"type":"VEC3"
		},
		{
			"bufferView":30,
			"componentType":5126,
			"count":32,
			"type":"VEC2"
		},
		{
			"bufferView":31,
			"componentType":5123,
			"count":48,
			"type":"SCALAR"
		}
	],
	"bufferViews":[
		{
			"buffer":0,
			"byteLength":1056,
			"byteOffset":0,
			"target":34962
		},
		{
			"buffer":0,
			"byteLength":1056,
			"byteOffset":1056,
			"target":34962
		},
		{
			"buffer":0,
			"byteLength":704,
			"byteOffset":2112,
			"target":34962
		},
		{
			"buffer":0,
			"byteLength":366,
			"byteOffset":2816,
			"target":34963
		},
		{
			"buffer":0,
			"byteLength":96,
			"byteOffset":3184,
			"target":34962
		},
		{
			"buffer":0,
			"byteLength":96,
			"byteOffset":3280,
			"target":34962
		},
		{
			"buffer":0,
			"byteLength":64,
			"byteOffset":3376,
			"target":34962
		},
		{
			"buffer":0,
			"byteLength":24,
			"byteOffset":3440,
			"target":34963
		},
		{
			"buffer":0,
			"byteLength":576,
			"byteOffset":3464,
			"target":34962
		},
		{
			"buffer":0,
			"byteLength":576,
			"byteOffset":4040,
			"target":34962
		},
		{
			"buffer":0,
			"byteLength":384,
			"byteOffset":4616,
			"target":34962
		},
		{
			"buffer":0,
			"byteLength":192,
			"byteOffset":5000,
			"target":34963
		},
		{
			"buffer":0,
			"byteLength":48,
			"byteOffset":5192,
			"target":34962
		},
		{
			"buffer":0,
			"byteLength":48,
			"byteOffset":5240,
			"target":34962
		},
		{
			"buffer":0,
			"byteLength":32,
			"byteOffset":5288,
			"target":34962
		},
		{
			"buffer":0,
			"byteLength":12,
			"byteOffset":5320,
			"target":34963
		},
		{
			"buffer":0,
			"byteLength":144,
			"byteOffset":5332,
			"target":34962
		},
		{
			"buffer":0,
			"byteLength":144,
			"byteOffset":5476,
			"target":34962
		},
		{
			"buffer":0,
			"byteLength":96,
			"byteOffset":5620,
			"target":34962
		},
		{
			"buffer":0,
			"byteLength":48,
			"byteOffset":5716,
			"target":34963
		},
		{
			"buffer":0,
			"byteLength":2520,
			"byteOffset":5764,
			"target":34962
		},
		{
			"buffer":0,
			"byteLength":2520,
			"byteOffset":8284,
			"target":34962
		},
		{
			"buffer":0,
			"byteLength":1680,
			"byteOffset":10804,
			"target":34962
		},
		{
			"buffer":0,
			"byteLength":1164,
			"byteOffset":12484,
			"target":34963
		},
		{
			"buffer":0,
			"byteLength":240,
			"byteOffset":13648,
			"target":34962
		},
		{
			"buffer":0,
			"byteLength":240,
			"byteOffset":13888,
			"target":34962
		},
		{
			"buffer":0,
			"byteLength":160,
			"byteOffset":14128,
			"target":34962
		},
		{
			"buffer":0,
			"byteLength":108,
			"byteOffset":14288,
			"target":34963
		},
		{
			"buffer":0,
			"byteLength":384,
			"byteOffset":14396,
			"target":34962
		},
		{
			"buffer":0,
			"byteLength":384,
			"byteOffset":14780,
			"target":34962
		},
		{
			"buffer":0,
			"byteLength":256,
			"byteOffset":15164,
			"target":34962
		},
		{
			"buffer":0,
			"byteLength":96,
			"byteOffset":15420,
			"target":34963
		}
	],
	"buffers":[
		{
			"byteLength":15516,
			"uri":"data:application/octet-stream;base64,"
		}
	]
}
