{
	"asset":{
		"generator":"Khronos glTF Blender I/O v3.6.27",
		"version":"2.0"
	},
	"extensionsUsed":[
		"KHR_materials_specular",
		"KHR_materials_ior"
	],
	"scene":0,
	"scenes":[
		{
			"name":"Scene",
			"nodes":[
				0
			]
		}
	],
	"nodes":[
		{
			"mesh":0,
			"name":"Commisary",
			"scale":[
				4.608088970184326,
				4.608088970184326,
				4.608088970184326
			],
			"translation":[
				0,
				4.423826217651367,
				-0.32308483123779297
			]
		}
	],
	"materials":[
		{
			"doubleSided":true,
			"name":"Material",
			"pbrMetallicRoughness":{
				"baseColorFactor":[
					0.800000011920929,
					0.800000011920929,
					0.800000011920929,
					1
				],
				"metallicFactor":0,
				"roughnessFactor":0.5
			}
		},
		{
			"alphaMode":"BLEND",
			"doubleSided":true,
			"name":"Window",
			"pbrMetallicRoughness":{
				"baseColorFactor":[
					0.05740797519683838,
					0.8000000715255737,
					0.7771444916725159,
					0.11023622006177902
				],
				"metallicFactor":0,
				"roughnessFactor":0.5
			}
		},
		{
			"doubleSided":true,
			"name":"RoofTrim",
			"pbrMetallicRoughness":{
				"baseColorFactor":[
					0.052217718213796616,
					0.052217718213796616,
					0.052217718213796616,
					1
				],
				"metallicFactor":0,
				"roughnessFactor":0.5
			}
		},
		{
			"doubleSided":true,
			"extensions":{
				"KHR_materials_specular":{
					"specularColorFactor":[
						0,
						0,
						0
					]
				},
				"KHR_materials_ior":{
					"ior":1.4500000476837158
				}
			},
			"name":"Counter",
			"pbrMetallicRoughness":{
				"baseColorFactor":[
					0.00985335186123848,
					0.0134783536195755,
					0.02365044876933098,
					1
				],
				"metallicFactor":0,
				"roughnessFactor":0.5
			}
		},
		{
			"doubleSided":true,
			"name":"Shelf",
			"pbrMetallicRoughness":{
				"baseColorFactor":[
					0.8000000715255737,
					0.04898080974817276,
					0.1663721352815628,
					1
				],
				"metallicFactor":0,
				"roughnessFactor":0.5
			}
		},
		{
			"doubleSided":true,
			"name":"Sign",
			"pbrMetallicRoughness":{
				"baseColorFactor":[
					0.8000000715255737,
					0.37188756465911865,
					0.05042409896850586,
					1
				],
				"metallicFactor":0,
				"roughnessFactor":0.5
			}
		},
		{
			"doubleSided":true,
			"name":"Floor",
			"pbrMetallicRoughness":{
				"baseColorFactor":[
					0.2469327598810196,
					0.8000000715255737,
					0.2843855023384094,
					1
				],
				"metallicFactor":0,
				"roughnessFactor":0.5
			}
		}
	],
	"meshes":[
		{
			"name":"Cube.001",
			"primitives":[
				{
					"attributes":{
						"POSITION":0,
						"NORMAL":1,
						"TEXCOORD_0":2
					},
					"indices":3,
					"material":0
				},
				{
					"attributes":{
						"POSITION":4,
						"NORMAL":5,
						"TEXCOORD_0":6
					},
					"indices":7,
					"material":1
				},
				{
					"attributes":{
						"POSITION":8,
						"NORMAL":9,
						"TEXCOORD_0":10
					},
					"indices":11,
					"material":2
				},
				{
					"attributes":{
						"POSITION":12,
						"NORMAL":13,
						"TEXCOORD_0":14
					},
					"indices":15,
					"material":3
				},
				{
					"attributes":{
						"POSITION":16,
						"NORMAL":17,
						"TEXCOORD_0":18
					},
					"indices":19,
					"material":4
				},
				{
					"attributes":{
						"POSITION":20,
						"NORMAL":21,
						"TEXCOORD_0":22
					},
					"indices":23,
					"material":5
				},
				{
					"attributes":{
						"POSITION":24,
						"NORMAL":25,
						"TEXCOORD_0":26
					},
					"indices":27,
					"material":6
				}
			]
		}
	],
	"accessors":[
		{
			"bufferView":0,
			"componentType":5126,
			"count":140,
			"max":[
				1,
				0.9183475375175476,
				0.43446075916290283
			],
			"min":[
				-1,
				-1,
				-1.7156996726989746
			],
			"type":"VEC3"
		},
		{
			"bufferView":1,
			"componentType":5126,
			"count":140,
			"type":"VEC3"
		},
		{
			"bufferView":2,
			"componentType":5126,
			"count":140,
			"type":"VEC2"
		},
		{
			"bufferView":3,
			"componentType":5123,
			"count":288,
			"type":"SCALAR"
		},
		{
			"bufferView":4,
			"componentType":5126,
			"count":12,
			"max":[
				0.9147293567657471,
				0.3522831201553345,
				0
			],
			"min":[
				-0.9147293567657471,
				-0.4811859130859375,
				-0.9245660901069641
			],
			"type":"VEC3"
		},
		{
			"bufferView":5,
			"componentType":5126,
			"count":12,
			"type":"VEC3"
		},
		{
			"bufferView":6,
			"componentType":5126,
			"count":12,
			"type":"VEC2"
		},
		{
			"bufferView":7,
			"componentType":5123,
			"count":18,
			"type":"SCALAR"
		},
		{
			"bufferView":8,
			"componentType":5126,
			"count":62,
			"max":[
				1.0149132013320923,
				0.9693803191184998,
				0.45729362964630127
			],
			"min":[
				-1.0149132013320923,
				0.9183475375175476,
				-1.01729416847229
			],
			"type":"VEC3"
		},
		{
			"bufferView":9,
			"componentType":5126,
			"count":62,
			"type":"VEC3"
		},
		{
			"bufferView":10,
			"componentType":5126,
			"count":62,
			"type":"VEC2"
		},
		{
			"bufferView":11,
			"componentType":5123,
			"count":138,
			"type":"SCALAR"
		},
		{
			"bufferView":12,
			"componentType":5126,
			"count":21,
			"max":[
				1,
				-0.4811859130859375,
				0
			],
			"min":[
				-1,
				-0.4811859130859375,
				-1
			],
			"type":"VEC3"
		},
		{
			"bufferView":13,
			"componentType":5126,
			"count":21,
			"type":"VEC3"
		},
		{
			"bufferView":14,
			"componentType":5126,
			"count":21,
			"type":"VEC2"
		},
		{
			"bufferView":15,
			"componentType":5123,
			"count":39,
			"type":"SCALAR"
		},
		{
			"bufferView":16,
			"componentType":5126,
			"count":16,
			"max":[
				0.8290514945983887,
				0.034629106521606445,
				0.43446075916290283
			],
			"min":[
				-0.8290514945983887,
				-1,
				0
			],
			"type":"VEC3"
		},
		{
			"bufferView":17,
			"componentType":5126,
			"count":16,
			"type":"VEC3"
		},
		{
			"bufferView":18,
			"componentType":5126,
			"count":16,
			"type":"VEC2"
		},
		{
			"bufferView":19,
			"componentType":5123,
			"count":24,
			"type":"SCALAR"
		},
		{
			"bufferView":20,
			"componentType":5126,
			"count":20,
			"max":[
				0.8290514945983887,
				0.7529630661010742,
				-1
			],
			"min":[
				-0.8290514945983887,
				0.52047199010849,
				-1.0289971828460693
			],
			"type":"VEC3"
		},
		{
			"bufferView":21,
			"componentType":5126,
			"count":20,
			"type":"VEC3"
		},
		{
			"bufferView":22,
			"componentType":5126,
			"count":20,
			"type":"VEC2"
		},
		{
			"bufferView":23,
			"componentType":5123,
			"count":30,
			"type":"SCALAR"
		},
		{
			"bufferView":24,
			"componentType":5126,
			"count":14,
			"max":[
				1,
				-1,
				0.43446075916290283
			],
			"min":[
				-1,
				-1,
				-0.8394504189491272
			],
			"type":"VEC3"
		},
		{
			"bufferView":25,
			"componentType":5126,
			"count":14,
			"type":"VEC3"
		},
		{
			"bufferView":26,
			"componentType":5126,
			"count":14,
			"type":"VEC2"
		},
		{
			"bufferView":27,
			"componentType":5123,
			"count":30,
			"type":"SCALAR"
		}
	],
	"bufferViews":[
		{
			"buffer":0,
			"byteLength":1680,
			"byteOffset":0,
			"target":34962
		},
		{
			"buffer":0,
			"byteLength":1680,
			"byteOffset":1680,
			"target":34962
		},
		{
			"buffer":0,
			"byteLength":1120,
			"byteOffset":3360,
			"target":34962
		},
		{
			"buffer":0,
			"byteLength":576,
			"byteOffset":4480,
			"target":34963
		},
		{
			"buffer":0,
			"byteLength":144,
			"byteOffset":5056,
			"target":34962
		},
		{
			"buffer":0,
			"byteLength":144,
			"byteOffset":5200,
			"target":34962
		},
		{
			"buffer":0,
			"byteLength":96,
			"byteOffset":5344,
			"target":34962
		},
		{
			"buffer":0,
			"byteLength":36,
			"byteOffset":5440,
			"target":34963
		},
		{
			"buffer":0,
			"byteLength":744,
			"byteOffset":5476,
			"target":34962
		},
		{
			"buffer":0,
			"byteLength":744,
			"byteOffset":6220,
			"target":34962
		},
		{
			"buffer":0,
			"byteLength":496,
			"byteOffset":6964,
			"target":34962
		},
		{
			"buffer":0,
			"byteLength":276,
			"byteOffset":7460,
			"target":34963
		},
		{
			"buffer":0,
			"byteLength":252,
			"byteOffset":7736,
			"target":34962
		},
		{
			"buffer":0,
			"byteLength":252,
			"byteOffset":7988,
			"target":34962
		},
		{
			"buffer":0,
			"byteLength":168,
			"byteOffset":8240,
			"target":34962
		},
		{
			"buffer":0,
			"byteLength":78,
			"byteOffset":8408,
			"target":34963
		},
		{
			"buffer":0,
			"byteLength":192,
			"byteOffset":8488,
			"target":34962
		},
		{
			"buffer":0,
			"byteLength":192,
			"byteOffset":8680,
			"target":34962
		},
		{
			"buffer":0,
			"byteLength":128,
			"byteOffset":8872,
			"target":34962
		},
		{
			"buffer":0,
			"byteLength":48,
			"byteOffset":9000,
			"target":34963
		},
		{
			"buffer":0,
			"byteLength":240,
			"byteOffset":9048,
			"target":34962
		},
		{
			"buffer":0,
			"byteLength":240,
			"byteOffset":9288,
			"target":34962
		},
		{
			"buffer":0,
			"byteLength":160,
			"byteOffset":9528,
			"target":34962
		},
		{
			"buffer":0,
			"byteLength":60,
			"byteOffset":9688,
			"target":34963
		},
		{
			"buffer":0,
			"byteLength":168,
			"byteOffset":9748,
			"target":34962
		},
		{
			"buffer":0,
			"byteLength":168,
			"byteOffset":9916,
			"target":34962
		},
		{
			"buffer":0,
			"byteLength":112,
			"byteOffset":10084,
			"target":34962
		},
		{
			"buffer":0,
			"byteLength":60,
			"byteOffset":10196,
			"target":34963
		}
	],
	"buffers":[
		{
			"byteLength":10256,
			"uri":"data:application/octet-stream;base64,"
		}
	]
}
