{
	"asset":{
		"generator":"Khronos glTF Blender I/O v3.6.27",
		"version":"2.0"
	},
	"extensionsUsed":[
		"KHR_materials_specular",
		"KHR_materials_ior"
	],
	"scene":0,
	"scenes":[
		{
			"name":"Scene",
			"nodes":[
				0,
				1,
				2,
				3,
				4
			]
		}
	],
	"nodes":[
		{
			"mesh":0,
			"name":"Bush",
			"translation":[
				0,
				1.338219404220581,
				0
			]
		},
		{
			"mesh":1,
			"name":"Cylinder",
			"scale":[
				2.8555338382720947,
				0.7916411757469177,
				1.6368752717971802
			],
			"translation":[
				0.7814719676971436,
				0.3169887065887451,
				0
			]
		},
		{
			"mesh":2,
			"name":"Cylinder.001",
			"scale":[
				2.8555338382720947,
				0.7916411757469177,
				1.6368752717971802
			],
			"translation":[
				0.7814719676971436,
				0.3169887065887451,
				0
			]
		},
		{
			"mesh":3,
			"name":"Cylinder.002",
			"scale":[
				2.8555338382720947,
				0.7916411757469177,
				1.6368752717971802
			],
			"translation":[
				0.7814719676971436,
				0.3169887065887451,
				0
			]
		},
		{
			"mesh":4,
			"name":"Cylinder.003",
			"scale":[
				2.8555338382720947,
				0.7916411757469177,
				1.6368752717971802
			],
			"translation":[
				0.7814719676971436,
				0.3169887065887451,
				0
			]
		}
	],
	"materials":[
		{
			"doubleSided":true,
			"extensions":{
				"KHR_materials_specular":{
					"specularColorFactor":[
						0.5321550841458423,
						0.5321550841458423,
						0.5321550841458423
					]
				},
				"KHR_materials_ior":{
					"ior":1.4500000476837158
				}
			},
			"name":"Material",
			"pbrMetallicRoughness":{
				"baseColorFactor":[
					0.0006415832904167473,
					0.033102747052907944,
					0,
					1
				],
				"metallicFactor":0
			}
		},
		{
			"doubleSided":true,
			"name":"wood",
			"pbrMetallicRoughness":{
				"baseColorFactor":[
					0.1237097978591919,
					0.07104121893644333,
					0.0017095142975449562,
					1
				],
				"metallicFactor":0,
				"roughnessFactor":0.9488189220428467
			}
		}
	],
	"meshes":[
		{
			"name":"Icosphere",
			"primitives":[
				{
					"attributes":{
						"POSITION":0,
						"NORMAL":1,
						"TEXCOORD_0":2
					},
					"indices":3,
					"material":0
				}
			]
		},
		{
			"name":"Cylinder",
			"primitives":[
				{
					"attributes":{
						"POSITION":4,
						"NORMAL":5,
						"TEXCOORD_0":6
					},
					"indices":7,
					"material":1
				}
			]
		},
		{
			"name":"Cylinder.001",
			"primitives":[
				{
					"attributes":{
						"POSITION":8,
						"NORMAL":9,
						"TEXCOORD_0":10
					},
					"indices":11,
					"material":1
				}
			]
		},
		{
			"name":"Cylinder.002",
			"primitives":[
				{
					"attributes":{
						"POSITION":12,
						"NORMAL":13,
						"TEXCOORD_0":14
					},
					"indices":15,
					"material":1
				}
			]
		},
		{
			"name":"Cylinder.003",
			"primitives":[
				{
					"attributes":{
						"POSITION":16,
						"NORMAL":17,
						"TEXCOORD_0":18
					},
					"indices":19,
					"material":1
				}
			]
		}
	],
	"accessors":[
		{
			"bufferView":0,
			"componentType":5126,
			"count":3840,
			"max":[
				2.7205991744995117,
				1.1963802576065063,
				1.0877915620803833
			],
			"min":[
				-2.364185094833374,
				-1.0924376249313354,
				-1.1419709920883179
			],
			"type":"VEC3"
		},
		{
			"bufferView":1,
			"componentType":5126,
			"count":3840,
			"type":"VEC3"
		},
		{
			"bufferView":2,
			"componentType":5126,
			"count":3840,
			"type":"VEC2"
		},
		{
			"bufferView":3,
			"componentType":5123,
			"count":3840,
			"type":"SCALAR"
		},
		{
			"bufferView":4,
			"componentType":5126,
			"count":136,
			"max":[
				0.29286718368530273,
				0.4177823066711426,
				0.050000011920928955
			],
			"min":[
				-0.05000000074505806,
				-0.5,
				-0.05000000074505806
			],
			"type":"VEC3"
		},
		{
			"bufferView":5,
			"componentType":5126,
			"count":136,
			"type":"VEC3"
		},
		{
			"bufferView":6,
			"componentType":5126,
			"count":136,
			"type":"VEC2"
		},
		{
			"bufferView":7,
			"componentType":5123,
			"count":210,
			"type":"SCALAR"
		},
		{
			"bufferView":8,
			"componentType":5126,
			"count":136,
			"max":[
				0.05000000074505806,
				0.4671850800514221,
				0.05000000447034836
			],
			"min":[
				-0.6931726336479187,
				-0.5,
				-0.05000000074505806
			],
			"type":"VEC3"
		},
		{
			"bufferView":9,
			"componentType":5126,
			"count":136,
			"type":"VEC3"
		},
		{
			"bufferView":10,
			"componentType":5126,
			"count":136,
			"type":"VEC2"
		},
		{
			"bufferView":11,
			"componentType":5123,
			"count":210,
			"type":"SCALAR"
		},
		{
			"bufferView":12,
			"componentType":5126,
			"count":136,
			"max":[
				0.05000000074505806,
				0.45941057801246643,
				0.05000000074505806
			],
			"min":[
				-0.05000000074505806,
				-0.5,
				-0.3996160924434662
			],
			"type":"VEC3"
		},
		{
			"bufferView":13,
			"componentType":5126,
			"count":136,
			"type":"VEC3"
		},
		{
			"bufferView":14,
			"componentType":5126,
			"count":136,
			"type":"VEC2"
		},
		{
			"bufferView":15,
			"componentType":5123,
			"count":210,
			"type":"SCALAR"
		},
		{
			"bufferView":16,
			"componentType":5126,
			"count":136,
			"max":[
				0.05000000074505806,
				0.44891396164894104,
				0.3224785327911377
			],
			"min":[
				-0.05000000074505806,
				-0.5,
				-0.05000000074505806
			],
			"type":"VEC3"
		},
		{
			"bufferView":17,
			"componentType":5126,
			"count":136,
			"type":"VEC3"
		},
		{
			"bufferView":18,
			"componentType":5126,
			"count":136,
			"type":"VEC2"
		},
		{
			"bufferView":19,
			"componentType":5123,
			"count":210,
			"type":"SCALAR"
		}
	],
	"bufferViews":[
		{
			"buffer":0,
			"byteLength":46080,
			"byteOffset":0,
			"target":34962
		},
		{
			"buffer":0,
			"byteLength":46080,
			"byteOffset":46080,
			"target":34962
		},
		{
			"buffer":0,
			"byteLength":30720,
			"byteOffset":92160,
			"target":34962
		},
		{
			"buffer":0,
			"byteLength":7680,
			"byteOffset":122880,
			"target":34963
		},
		{
			"buffer":0,
			"byteLength":1632,
			"byteOffset":130560,
			"target":34962
		},
		{
			"buffer":0,
			"byteLength":1632,
			"byteOffset":132192,
			"target":34962
		},
		{
			"buffer":0,
			"byteLength":1088,
			"byteOffset":133824,
			"target":34962
		},
		{
			"buffer":0,
			"byteLength":420,
			"byteOffset":134912,
			"target":34963
		},
		{
			"buffer":0,
			"byteLength":1632,
			"byteOffset":135332,
			"target":34962
		},
		{
			"buffer":0,
			"byteLength":1632,
			"byteOffset":136964,
			"target":34962
		},
		{
			"buffer":0,
			"byteLength":1088,
			"byteOffset":138596,
			"target":34962
		},
		{
			"buffer":0,
			"byteLength":420,
			"byteOffset":139684,
			"target":34963
		},
		{
			"buffer":0,
			"byteLength":1632,
			"byteOffset":140104,
			"target":34962
		},
		{
			"buffer":0,
			"byteLength":1632,
			"byteOffset":141736,
			"target":34962
		},
		{
			"buffer":0,
			"byteLength":1088,
			"byteOffset":143368,
			"target":34962
		},
		{
			"buffer":0,
			"byteLength":420,
			"byteOffset":144456,
			"target":34963
		},
		{
			"buffer":0,
			"byteLength":1632,
			"byteOffset":144876,
			"target":34962
		},
		{
			"buffer":0,
			"byteLength":1632,
			"byteOffset":146508,
			"target":34962
		},
		{
			"buffer":0,
			"byteLength":1088,
			"byteOffset":148140,
			"target":34962
		},
		{
			"buffer":0,
			"byteLength":420,
			"byteOffset":149228,
			"target":34963
		}
	],
	"buffers":[
		{
			"byteLength":149648,
			"uri":"data:application/octet-stream;base64,"
		}
	]
}
