{
	"asset":{
		"generator":"Khronos glTF Blender I/O v3.6.27",
		"version":"2.0"
	},
	"extensionsUsed":[
		"KHR_materials_specular",
		"KHR_materials_ior"
	],
	"scene":0,
	"scenes":[
		{
			"name":"Scene",
			"nodes":[
				0
			]
		}
	],
	"nodes":[
		{
			"mesh":0,
			"name":"Cylinder",
			"rotation":[
				0,
				0.1950903683900833,
				0,
				0.9807853698730469
			],
			"scale":[
				0.5607464909553528,
				0.12359242141246796,
				0.5607464909553528
			],
			"translation":[
				0,
				-0.046406108886003494,
				0
			]
		}
	],
	"materials":[
		{
			"doubleSided":true,
			"extensions":{
				"KHR_materials_specular":{
					"specularColorFactor":[
						0,
						0,
						0
					]
				},
				"KHR_materials_ior":{
					"ior":1.4500000476837158
				}
			},
			"name":"Material",
			"pbrMetallicRoughness":{
				"baseColorTexture":{
					"index":0
				},
				"metallicFactor":0.6535432934761047,
				"roughnessFactor":0.5
			}
		}
	],
	"meshes":[
		{
			"name":"Cylinder",
			"primitives":[
				{
					"attributes":{
						"POSITION":0,
						"NORMAL":1,
						"TEXCOORD_0":2
					},
					"indices":3,
					"material":0
				}
			]
		}
	],
	"textures":[
		{
			"sampler":0,
			"source":0
		}
	],
	"images":[
		{
			"bufferView":4,
			"mimeType":"image/png",
			"name":"RustyMetal02"
		}
	],
	"accessors":[
		{
			"bufferView":0,
			"componentType":5126,
			"count":988,
			"max":[
				0.9144582152366638,
				13.06661605834961,
				1.0448365211486816
			],
			"min":[
				-0.9144582152366638,
				0.2509605288505554,
				-0.9144582152366638
			],
			"type":"VEC3"
		},
		{
			"bufferView":1,
			"componentType":5126,
			"count":988,
			"type":"VEC3"
		},
		{
			"bufferView":2,
			"componentType":5126,
			"count":988,
			"type":"VEC2"
		},
		{
			"bufferView":3,
			"componentType":5123,
			"count":1734,
			"type":"SCALAR"
		}
	],
	"bufferViews":[
		{
			"buffer":0,
			"byteLength":11856,
			"byteOffset":0,
			"target":34962
		},
		{
			"buffer":0,
			"byteLength":11856,
			"byteOffset":11856,
			"target":34962
		},
		{
			"buffer":0,
			"byteLength":7904,
			"byteOffset":23712,
			"target":34962
		},
		{
			"buffer":0,
			"byteLength":3468,
			"byteOffset":31616,
			"target":34963
		},
		{
			"buffer":0,
			"byteLength":288476,
			"byteOffset":35084
		}
	],
	"samplers":[
		{
			"magFilter":9728,
			"minFilter":9984
		}
	],
	"buffers":[
		{
			"byteLength":323560,
			"uri":"data:application/octet-stream;base64,"
		}
	]
}
