{
	"asset":{
		"generator":"Khronos glTF Blender I/O v3.6.27",
		"version":"2.0"
	},
	"extensionsUsed":[
		"KHR_materials_specular",
		"KHR_materials_ior"
	],
	"scene":0,
	"scenes":[
		{
			"name":"Scene",
			"nodes":[
				0
			]
		}
	],
	"nodes":[
		{
			"mesh":0,
			"name":"Cylinder",
			"rotation":[
				0,
				0.19509032368659973,
				0,
				0.9807853102684021
			],
			"scale":[
				0.3761204481124878,
				0.08891814947128296,
				0.3761204481124878
			],
			"translation":[
				0,
				0.011762022972106934,
				0
			]
		}
	],
	"materials":[
		{
			"doubleSided":true,
			"extensions":{
				"KHR_materials_specular":{
					"specularColorFactor":[
						0,
						0,
						0
					]
				},
				"KHR_materials_ior":{
					"ior":1.4500000476837158
				}
			},
			"name":"Material",
			"pbrMetallicRoughness":{
				"baseColorFactor":[
					0.8000000715255737,
					0.051358506083488464,
					0.03850314021110535,
					1
				],
				"metallicFactor":0.6535432934761047,
				"roughnessFactor":0.5
			}
		}
	],
	"meshes":[
		{
			"name":"Cylinder",
			"primitives":[
				{
					"attributes":{
						"POSITION":0,
						"NORMAL":1,
						"TEXCOORD_0":2
					},
					"indices":3,
					"material":0
				}
			]
		}
	],
	"accessors":[
		{
			"bufferView":0,
			"componentType":5126,
			"count":1002,
			"max":[
				0.9144582152366638,
				13.06661605834961,
				1.0448365211486816
			],
			"min":[
				-0.9144582152366638,
				0.2509605288505554,
				-0.9144582152366638
			],
			"type":"VEC3"
		},
		{
			"bufferView":1,
			"componentType":5126,
			"count":1002,
			"type":"VEC3"
		},
		{
			"bufferView":2,
			"componentType":5126,
			"count":1002,
			"type":"VEC2"
		},
		{
			"bufferView":3,
			"componentType":5123,
			"count":1764,
			"type":"SCALAR"
		}
	],
	"bufferViews":[
		{
			"buffer":0,
			"byteLength":12024,
			"byteOffset":0,
			"target":34962
		},
		{
			"buffer":0,
			"byteLength":12024,
			"byteOffset":12024,
			"target":34962
		},
		{
			"buffer":0,
			"byteLength":8016,
			"byteOffset":24048,
			"target":34962
		},
		{
			"buffer":0,
			"byteLength":3528,
			"byteOffset":32064,
			"target":34963
		}
	],
	"buffers":[
		{
			"byteLength":35592,
			"uri":"data:application/octet-stream;base64,"
		}
	]
}
