{
	"asset":{
		"generator":"Khronos glTF Blender I/O v3.6.27",
		"version":"2.0"
	},
	"extensionsUsed":[
		"KHR_materials_specular",
		"KHR_materials_ior"
	],
	"scene":0,
	"scenes":[
		{
			"name":"Scene",
			"nodes":[
				0,
				1
			]
		}
	],
	"nodes":[
		{
			"mesh":0,
			"name":"Cylinder",
			"translation":[
				0,
				8.173545837402344,
				0
			]
		},
		{
			"mesh":1,
			"name":"Cube",
			"scale":[
				11.199868202209473,
				1,
				0.45516765117645264
			],
			"translation":[
				0,
				38.42408752441406,
				1.250229001045227
			]
		}
	],
	"materials":[
		{
			"doubleSided":true,
			"extensions":{
				"KHR_materials_specular":{
					"specularColorFactor":[
						0,
						0,
						0
					]
				},
				"KHR_materials_ior":{
					"ior":1.4500000476837158
				}
			},
			"name":"Wood",
			"pbrMetallicRoughness":{
				"baseColorTexture":{
					"index":0
				},
				"metallicFactor":0,
				"roughnessFactor":0.5
			}
		},
		{
			"doubleSided":true,
			"extensions":{
				"KHR_materials_specular":{
					"specularColorFactor":[
						0,
						0,
						0
					]
				},
				"KHR_materials_ior":{
					"ior":1.4500000476837158
				}
			},
			"name":"Bracket",
			"pbrMetallicRoughness":{
				"baseColorTexture":{
					"index":1
				},
				"metallicFactor":0.5590550899505615,
				"roughnessFactor":0.5
			}
		}
	],
	"meshes":[
		{
			"name":"Cylinder",
			"primitives":[
				{
					"attributes":{
						"POSITION":0,
						"NORMAL":1,
						"TEXCOORD_0":2
					},
					"indices":3,
					"material":0
				}
			]
		},
		{
			"name":"Cube.001",
			"primitives":[
				{
					"attributes":{
						"POSITION":4,
						"NORMAL":5,
						"TEXCOORD_0":6
					},
					"indices":7,
					"material":0
				},
				{
					"attributes":{
						"POSITION":8,
						"NORMAL":9,
						"TEXCOORD_0":10
					},
					"indices":11,
					"material":1
				}
			]
		}
	],
	"textures":[
		{
			"sampler":0,
			"source":0
		},
		{
			"sampler":0,
			"source":1
		}
	],
	"images":[
		{
			"bufferView":4,
			"mimeType":"image/png",
			"name":"Wood01"
		},
		{
			"bufferView":13,
			"mimeType":"image/png",
			"name":"RustyMetal03"
		}
	],
	"accessors":[
		{
			"bufferView":0,
			"componentType":5126,
			"count":60,
			"max":[
				0.9510565400123596,
				33.15544128417969,
				1
			],
			"min":[
				-0.9510565400123596,
				-9.00501823425293,
				-1
			],
			"type":"VEC3"
		},
		{
			"bufferView":1,
			"componentType":5126,
			"count":60,
			"type":"VEC3"
		},
		{
			"bufferView":2,
			"componentType":5126,
			"count":60,
			"type":"VEC2"
		},
		{
			"bufferView":3,
			"componentType":5123,
			"count":108,
			"type":"SCALAR"
		},
		{
			"bufferView":5,
			"componentType":5126,
			"count":80,
			"max":[
				0.9999998807907104,
				1,
				1.691498875617981
			],
			"min":[
				-0.9999999403953552,
				-1,
				-1.0545610189437866
			],
			"type":"VEC3"
		},
		{
			"bufferView":6,
			"componentType":5126,
			"count":80,
			"type":"VEC3"
		},
		{
			"bufferView":7,
			"componentType":5126,
			"count":80,
			"type":"VEC2"
		},
		{
			"bufferView":8,
			"componentType":5123,
			"count":234,
			"type":"SCALAR"
		},
		{
			"bufferView":9,
			"componentType":5126,
			"count":168,
			"max":[
				0.9021298289299011,
				1.5787925720214844,
				1.691498875617981
			],
			"min":[
				-0.9021298289299011,
				-5.2668070793151855,
				-2.6130239963531494
			],
			"type":"VEC3"
		},
		{
			"bufferView":10,
			"componentType":5126,
			"count":168,
			"type":"VEC3"
		},
		{
			"bufferView":11,
			"componentType":5126,
			"count":168,
			"type":"VEC2"
		},
		{
			"bufferView":12,
			"componentType":5123,
			"count":270,
			"type":"SCALAR"
		}
	],
	"bufferViews":[
		{
			"buffer":0,
			"byteLength":720,
			"byteOffset":0,
			"target":34962
		},
		{
			"buffer":0,
			"byteLength":720,
			"byteOffset":720,
			"target":34962
		},
		{
			"buffer":0,
			"byteLength":480,
			"byteOffset":1440,
			"target":34962
		},
		{
			"buffer":0,
			"byteLength":216,
			"byteOffset":1920,
			"target":34963
		},
		{
			"buffer":0,
			"byteLength":164019,
			"byteOffset":2136
		},
		{
			"buffer":0,
			"byteLength":960,
			"byteOffset":166156,
			"target":34962
		},
		{
			"buffer":0,
			"byteLength":960,
			"byteOffset":167116,
			"target":34962
		},
		{
			"buffer":0,
			"byteLength":640,
			"byteOffset":168076,
			"target":34962
		},
		{
			"buffer":0,
			"byteLength":468,
			"byteOffset":168716,
			"target":34963
		},
		{
			"buffer":0,
			"byteLength":2016,
			"byteOffset":169184,
			"target":34962
		},
		{
			"buffer":0,
			"byteLength":2016,
			"byteOffset":171200,
			"target":34962
		},
		{
			"buffer":0,
			"byteLength":1344,
			"byteOffset":173216,
			"target":34962
		},
		{
			"buffer":0,
			"byteLength":540,
			"byteOffset":174560,
			"target":34963
		},
		{
			"buffer":0,
			"byteLength":298522,
			"byteOffset":175100
		}
	],
	"samplers":[
		{
			"magFilter":9728,
			"minFilter":9984
		}
	],
	"buffers":[
		{
			"byteLength":473624,
			"uri":"data:application/octet-stream;base64,"
		}
	]
}
